<svg xmlns="http://www.w3.org/2000/svg" width="540" height="472" viewBox="0 0 540 472" style="display: block; transform: scale(-1,1)"><g><g><path fill="#3f4448" fill-opacity=".05" d="M337.302 471.998h-1.928l-18.742-32.48.962-1.673z"/></g><g><path fill="#3f4448" fill-opacity=".05" d="M353.086 471.998h-1.925l-26.645-46.178.962-1.676z"/></g><g><path fill="#3f4448" fill-opacity=".05" d="M321.515 471.998h-1.925l-10.839-18.782.963-1.673z"/></g><g><path fill="#3f4448" fill-opacity=".05" d="M305.728 471.998h-1.925l-2.936-5.084.963-1.673z"/></g><g><path fill="#3f4448" fill-opacity=".05" d="M325.7 256.259L201.577 471.996h-7.694l124.11-215.722-97.883-169.798 3.866-6.67z"/></g><g><path fill="#3f4448" fill-opacity=".05" d="M294.142 256.259L170.024 471.996h-7.695l124.11-215.722-82.145-142.487 3.865-6.673z"/></g><g><path fill="#3f4448" fill-opacity=".05" d="M309.919 256.259L185.797 471.996h-7.69l124.11-215.722-90.016-156.144 3.865-6.67z"/></g><g><path fill="#3f4448" fill-opacity=".05" d="M278.364 256.259L154.246 471.996h-7.694l124.11-215.722-74.276-128.837 3.866-6.669z"/></g><g><path fill="#3f4448" fill-opacity=".05" d="M246.81 256.259L122.688 471.996h-7.676l118.034-205.114.868-1.523 5.194-9.085-58.536-101.529 3.862-6.67z"/></g><g><path fill="#3f4448" fill-opacity=".05" d="M262.587 256.259L138.466 471.996h-7.691l124.11-215.722-66.41-115.183 3.866-6.673z"/></g><g><path fill="#3f4448" fill-opacity=".05" d="M373.028 256.259L248.91 471.996h-7.694l124.11-215.722-121.49-210.756 3.866-6.673z"/></g><g><path fill="#3f4448" fill-opacity=".05" d="M273.11.805l147.252 255.454L296.244 472h-7.698l124.11-215.726L267.56 4.554l2.175-3.75z"/></g><g><path fill="#3f4448" fill-opacity=".05" d="M341.473 256.259L217.356 471.996h-7.695l124.114-215.722L228.023 72.826l3.861-6.673z"/></g><g><path fill="#3f4448" fill-opacity=".05" d="M404.586 256.259L280.464 471.996h-7.69l124.11-215.722L259.654 18.21l3.865-6.673z"/></g><g><path fill="#3f4448" fill-opacity=".05" d="M357.254 256.259L233.133 471.996h-7.695l124.114-215.722-113.62-197.105 3.859-6.67z"/></g><g><path fill="#3f4448" fill-opacity=".05" d="M388.808 256.259l-124.12 215.737h-7.695l124.114-215.722-129.363-224.41 3.865-6.673z"/></g><g><path fill="#3f4448" fill-opacity=".05" d="M411.43.804l82.278 142.72-.962 1.673L409.506.804z"/></g><g><path fill="#3f4448" fill-opacity=".05" d="M395.653.804l90.173 156.418-.962 1.673L393.727.804z"/></g><g><path fill="#3f4448" fill-opacity=".05" d="M379.876.804l98.069 170.12-.963 1.672L377.95.804z"/></g><g><path fill="#3f4448" fill-opacity=".05" d="M458.764.804l58.594 101.624-.963 1.676L456.838.804z"/></g><g><path fill="#3f4448" fill-opacity=".05" d="M427.208.804l74.385 129.023-.962 1.673L425.282.804z"/></g><g><path fill="#3f4448" fill-opacity=".05" d="M442.985.804l66.49 115.325-.963 1.673L441.056.804z"/></g><g><path fill="#3f4448" fill-opacity=".05" d="M348.32.804l113.857 197.515-.962 1.673L346.395.804z"/></g><g><path fill="#3f4448" fill-opacity=".05" d="M300.987.804l137.545 238.612-.963 1.673L299.062.804z"/></g><g><path fill="#3f4448" fill-opacity=".05" d="M285.21.804l145.44 252.31-.966 1.672L283.284.804z"/></g><g><path fill="#3f4448" fill-opacity=".05" d="M364.098.804L470.063 184.62l-.963 1.673L362.172.804z"/></g><g><path fill="#3f4448" fill-opacity=".05" d="M316.765.804l129.649 224.91-.963 1.677L314.84.804z"/></g><g><path fill="#3f4448" fill-opacity=".05" d="M332.543.804l121.753 211.213-.963 1.673L330.617.804z"/></g><g><path fill="#3f4448" fill-opacity=".05" d="M141.947 163.614L236.25.804h1.933l-94.307 162.81 74.412 129.07-.96 1.681-75.14-130.333z"/></g><g><path fill="#3f4448" fill-opacity=".05" d="M94.615 163.614L188.918.804h1.93l-94.303 162.81 98.172 170.3-.96 1.68-98.9-171.562z"/></g><g><path fill="#3f4448" fill-opacity=".05" d="M126.17 163.614L220.473.804h1.932L128.1 163.615l82.333 142.816-.96 1.677-83.06-144.075z"/></g><g><path fill="#3f4448" fill-opacity=".05" d="M157.725 163.614L252.028.804h1.929l-94.303 162.81 66.494 115.33-.963 1.68-67.218-116.592z"/></g><g><path fill="#3f4448" fill-opacity=".05" d="M267.807.804h1.929l-94.303 162.813 58.569 101.584-.96 1.68-59.538-103.268z"/></g><g><path fill="#3f4448" fill-opacity=".05" d="M110.392 163.614L204.695.804h1.929l-94.303 162.81 90.251 156.558-.959 1.676-90.979-157.816z"/></g><g><path fill="#3f4448" fill-opacity=".05" d="M78.837 163.614L173.14.804h1.933l-94.307 162.81L186.86 347.66l-.96 1.676L79.08 164.032z"/></g><g><path fill="#3f4448" fill-opacity=".05" d="M15.728 163.614L110.03.804h1.928l-94.302 162.81L155.432 402.63l-.963 1.677-138.5-240.274z"/></g><g><path fill="#3f4448" fill-opacity=".05" d="M94.253.804h1.93L1.88 163.617l145.693 252.756-.96 1.677L.193 164.03l-.242-.417z"/></g><g><path fill="#3f4448" fill-opacity=".05" d="M31.504 163.614L125.807.804h1.933l-94.306 162.81 129.853 225.27-.959 1.68L31.746 164.032z"/></g><g><path fill="#3f4448" fill-opacity=".05" d="M47.283 163.614L141.586.804h1.929l-94.303 162.81 121.933 211.528-.96 1.68-122.66-212.79z"/></g><g><path fill="#3f4448" fill-opacity=".05" d="M63.06 163.614L157.362.804h1.93l-94.303 162.81 114.014 197.787-.962 1.676L63.3 164.032z"/></g><g><path fill="#3f4448" fill-opacity=".05" d="M501.265 197.083L372.268 420.663l29.688 51.335h-5.02l-29.683-51.335 131.505-227.92z"/></g><g><path fill="#3f4448" fill-opacity=".05" d="M509.162 210.759l-121.12 209.902 29.688 51.336h-5.015l-29.687-51.332 123.627-214.247z"/></g><g><path fill="#3f4448" fill-opacity=".05" d="M517.06 224.434L403.82 420.661l29.688 51.335h-5.019l-29.683-51.331 115.746-200.576z"/></g><g><path fill="#3f4448" fill-opacity=".05" d="M524.956 238.106L419.599 420.661 449.285 472h-5.018l-29.683-51.336 107.865-186.903z"/></g><g><path fill="#3f4448" fill-opacity=".05" d="M485.472 169.74L340.709 420.661l29.687 51.335h-5.015l-29.688-51.335 147.271-255.268z"/></g><g><path fill="#3f4448" fill-opacity=".05" d="M493.368 183.411L356.49 420.661l29.683 51.336h-5.014l-29.684-51.332L490.861 179.07z"/></g><g><path fill="#3f4448" fill-opacity=".05" d="M539.57 263.408v4.096l-88.416 153.157 29.687 51.335h-5.019l-29.683-51.331 92.103-159.552z"/></g><g><path fill="#3f4448" fill-opacity=".05" d="M539.57 322.198l-56.862 98.461 29.687 51.339h-5.019l-29.683-51.332 61.877-107.15z"/></g><g><path fill="#3f4448" fill-opacity=".05" d="M539.57 349.536l-41.082 71.124 29.684 51.339h-5.02l-29.682-51.332 46.1-79.814z"/></g><g><path fill="#3f4448" fill-opacity=".05" d="M539.57 376.863l-25.309 43.799 25.31 43.758v7.577h-.637l-29.688-51.335 30.324-52.478z"/></g><g><path fill="#3f4448" fill-opacity=".05" d="M539.57 294.85l-72.64 125.81 29.688 51.339h-5.019l-29.683-51.332 77.654-134.5z"/></g><g><path fill="#3f4448" fill-opacity=".05" d="M532.853 251.778l-97.477 168.883 29.687 51.335h-5.018l-29.683-51.328 99.983-173.23z"/></g><g><path fill="#3f4448" fill-opacity=".05" d="M539.57 96.908l-38.641 66.71 38.64 67.032v3.342l-40.328-69.96-.241-.418 40.57-70.037z"/></g><g><path fill="#3f4448" fill-opacity=".05" d="M539.57 69.668l-54.418 93.947 54.417 94.405v3.342l-56.104-97.33-.242-.417 56.346-97.278z"/></g></g></svg>